<svg width="68" height="68" viewBox="0 0 68 68" fill="none" xmlns="http://www.w3.org/2000/svg">
<path fill-rule="evenodd" clip-rule="evenodd" d="M66.8519 66.3946H1.14789V1.60501H66.8519V66.3946Z" fill="black" stroke="white" stroke-width="2"/>
<path fill-rule="evenodd" clip-rule="evenodd" d="M33.2978 2.29732C33.6872 1.91342 34.3127 1.91342 34.7021 2.29732L66.1298 33.2878C66.527 33.6794 66.527 34.3202 66.1298 34.7118L34.7021 65.7023C34.3127 66.0862 33.6872 66.0862 33.2978 65.7023L1.87 34.7118C1.4729 34.3202 1.4729 33.6794 1.87 33.2878L33.2978 2.29732Z" fill="black" stroke="white" stroke-width="2"/>
<path d="M50.2454 18.9805C50.2454 18.4282 49.7977 17.9805 49.2454 17.9805H18.7544C18.2021 17.9805 17.7544 18.4282 17.7544 18.9805V49.0193C17.7544 49.5716 18.2021 50.0193 18.7544 50.0193H49.2454C49.7977 50.0193 50.2454 49.5716 50.2454 49.0193V18.9805Z" fill="black" stroke="white" stroke-width="2"/>
<path d="M26.9602 45.5698V22.4307H40.9494V24.7446H29.5775V32.8433H40.2274V35.0682H29.6678L29.5775 43.2559H41.0396V45.5698H26.9602Z" fill="white"/>
</svg>
